<svg width="12" height="12" viewBox="0 0 12 12" fill="none" xmlns="http://www.w3.org/2000/svg">
<path d="M11.7686 9.26228C11.7927 9.44608 11.7365 9.60589 11.6001 9.74171L9.9989 11.3238C9.92667 11.4037 9.83238 11.4716 9.71601 11.5275C9.59963 11.5835 9.48528 11.6194 9.37295 11.6354C9.36493 11.6354 9.34079 11.6375 9.30064 11.6414C9.26057 11.6454 9.2084 11.6475 9.1442 11.6475C8.99166 11.6475 8.74484 11.6215 8.40374 11.5695C8.06264 11.5176 7.64531 11.3897 7.15175 11.186C6.65807 10.9822 6.09828 10.6766 5.47228 10.2691C4.84627 9.86163 4.1801 9.30225 3.47381 8.59108C2.912 8.03974 2.44649 7.51237 2.07729 7.00899C1.7081 6.50557 1.41114 6.04013 1.18641 5.61264C0.961666 5.18514 0.793121 4.79761 0.680758 4.45002C0.568394 4.10244 0.492148 3.80279 0.452018 3.55109C0.411888 3.29939 0.395836 3.10163 0.403862 2.9578C0.411888 2.81397 0.415901 2.73407 0.415901 2.71809C0.431953 2.60622 0.46807 2.49236 0.524251 2.37649C0.580433 2.26063 0.648654 2.16674 0.728913 2.09483L2.33009 0.500731C2.44246 0.388865 2.57087 0.332932 2.71534 0.332932C2.81968 0.332932 2.91198 0.362896 2.99224 0.422824C3.07249 0.482753 3.14072 0.556665 3.1969 0.64456L4.48506 3.07766C4.5573 3.20551 4.57736 3.34534 4.54526 3.49716C4.51316 3.64898 4.44493 3.77682 4.3406 3.8807L3.75069 4.468C3.73464 4.48398 3.72059 4.50995 3.70855 4.54591C3.69651 4.58186 3.69049 4.61183 3.69049 4.6358C3.7226 4.8036 3.79483 4.99537 3.9072 5.21111C4.00351 5.40289 4.15199 5.63661 4.35264 5.91228C4.55329 6.18795 4.83821 6.50555 5.2074 6.86512C5.56857 7.23272 5.88961 7.51834 6.17052 7.72214C6.45137 7.92582 6.6862 8.0757 6.87481 8.17158C7.06343 8.26747 7.20789 8.3254 7.3082 8.34532L7.45864 8.3753C7.4747 8.3753 7.50084 8.36929 7.53692 8.35732C7.57303 8.34532 7.59912 8.33135 7.61519 8.31535L8.30139 7.62018C8.44594 7.49235 8.6144 7.42843 8.80705 7.42843C8.94353 7.42843 9.05182 7.45238 9.13208 7.50034H9.1441L11.4676 8.86672C11.6362 8.97067 11.7365 9.10247 11.7686 9.26228Z" fill="#D95B5B"/>
</svg>
